<svg width="1125" height="170" viewBox="0 0 1125 170" fill="none" xmlns="http://www.w3.org/2000/svg">
<g clip-path="url(#clip0_150_99)">
<path d="M20.707 114.765C20.2835 114.606 19.8571 114.451 19.4291 114.301C9.93003 110.983 0 118.052 0 128.114C0 151.247 18.7531 170 41.8862 170H41.8869C51.9579 170 59.0158 160.057 55.6918 150.55C49.9222 134.051 37.0332 120.894 20.707 114.765Z" fill="#FF5021"/>
<path d="M132.231 1.29145C131.808 1.13255 131.381 0.978159 130.954 0.828261C121.454 -2.49049 111.524 4.57872 111.524 14.6407C111.524 37.7738 130.277 56.5268 153.411 56.5268H153.411C163.482 56.5268 170.54 46.5841 167.216 37.0767C161.447 20.5774 148.558 7.4208 132.231 1.29145Z" fill="#FF5021"/>
<path d="M154.801 85.5821C144.931 84.1071 135.623 80.9112 127.192 76.3086C104.62 63.9854 88.3417 41.5808 84.4099 15.147C83.3456 7.99457 77.1825 2.71289 69.9514 2.71289C31.3188 2.71289 0.000488281 34.0312 0.000488281 72.6638C0.000488281 79.9204 5.32414 86.0588 12.5005 87.132C23.0594 88.7112 32.9744 92.2608 41.8597 97.3948C63.4998 109.897 79.0285 131.797 82.8704 157.515C83.9414 164.686 90.0865 169.999 97.3364 169.999C135.97 169.999 167.288 138.681 167.288 100.047C167.288 92.7967 161.973 86.6524 154.803 85.5813L154.801 85.5821Z" fill="#FF5021"/>
</g>
<path d="M257.918 27.948C263.815 27.948 268.575 28.517 272.196 29.6551C275.921 30.6898 279.542 32.19 283.06 34.1558C284.198 34.7766 285.181 35.2939 286.008 35.7078C286.94 36.1216 287.716 36.3286 288.336 36.3286C289.267 36.3286 289.992 35.8113 290.509 34.7766C291.026 33.6385 291.44 31.8796 291.751 29.4999H295.32C294.803 36.9494 294.544 49.572 294.544 67.3679H290.975C290.561 61.4704 289.216 55.8316 286.94 50.4515C284.663 45.0713 281.559 40.6741 277.628 37.2598C273.696 33.8454 269.144 32.1383 263.97 32.1383C259.211 32.1383 255.383 33.4316 252.486 36.0182C249.589 38.5013 248.14 42.0191 248.14 46.5716C248.14 50.0894 248.916 53.1416 250.468 55.7282C252.02 58.3148 254.296 60.8497 257.297 63.3328C260.297 65.7125 265.212 69.282 272.041 74.0414C272.661 74.3518 273.23 74.7139 273.748 75.1278C274.369 75.5416 274.938 75.9555 275.455 76.3693C281.146 80.301 285.698 83.8188 289.112 86.9227C292.527 89.9232 295.268 93.441 297.338 97.4761C299.51 101.511 300.597 106.167 300.597 111.444C300.597 118.169 298.683 123.86 294.855 128.515C291.13 133.068 286.06 136.482 279.645 138.758C273.231 141.035 266.143 142.173 258.383 142.173C252.072 142.173 246.795 141.655 242.553 140.621C238.415 139.586 234.535 138.189 230.914 136.43C228.637 134.982 226.878 134.258 225.637 134.258C224.706 134.258 223.981 134.827 223.464 135.965C222.947 137 222.533 138.707 222.223 141.086H218.653C219.067 134.051 219.274 119.048 219.274 96.0793H222.843C223.568 108.392 226.154 118.376 230.603 126.032C235.052 133.689 241.881 137.517 251.089 137.517C256.78 137.517 261.28 136.172 264.591 133.482C268.006 130.792 269.713 127.067 269.713 122.308C269.713 116.41 267.85 111.392 264.126 107.253C260.504 103.011 254.814 98.3038 247.054 93.1306C240.846 88.992 235.88 85.3707 232.155 82.2668C228.43 79.1629 225.378 75.5934 222.998 71.5582C220.619 67.4197 219.429 62.6603 219.429 57.2801C219.429 50.7619 221.188 45.33 224.706 40.9845C228.223 36.5355 232.879 33.2764 238.673 31.2071C244.571 29.0343 250.986 27.948 257.918 27.948ZM394.69 113.927C394.69 124.48 395.052 133.171 395.776 140C388.741 139.69 376.894 139.534 360.236 139.534C336.025 139.534 317.919 139.69 305.917 140V136.896C309.228 136.689 311.608 136.275 313.056 135.654C314.608 135.034 315.643 133.844 316.16 132.085C316.678 130.326 316.936 127.481 316.936 123.549V46.5716C316.936 42.6399 316.626 39.7946 316.005 38.0357C315.488 36.2768 314.505 35.087 313.056 34.4662C311.608 33.8454 309.228 33.4316 305.917 33.2246V30.1207C317.919 30.4311 336.025 30.5863 360.236 30.5863C375.445 30.5863 386.257 30.4311 392.672 30.1207C391.948 39.8464 391.586 48.5374 391.586 56.1938C391.586 60.9531 391.741 64.6778 392.051 67.3679H388.482C386.62 55.366 383.153 46.7785 378.084 41.6053C373.014 36.3286 366.961 33.6902 359.926 33.6902H357.908C355.115 33.6902 353.045 33.9489 351.7 34.4662C350.459 34.8801 349.579 35.7595 349.062 37.1046C348.648 38.3461 348.441 40.4672 348.441 43.4676V83.198H349.993C355.373 83.198 359.977 81.077 363.806 76.8349C367.634 72.5929 370.065 67.8852 371.1 62.712H374.669C374.359 67.0575 374.204 71.9204 374.204 77.3005V84.75C374.204 90.0267 374.514 97.3726 375.135 106.788H371.565C370.634 100.89 368.203 96.0276 364.271 92.1994C360.443 88.2678 355.684 86.3019 349.993 86.3019H348.441V126.653C348.441 129.654 348.648 131.826 349.062 133.171C349.579 134.413 350.459 135.292 351.7 135.81C353.045 136.224 355.115 136.43 357.908 136.43H363.03C369.031 136.43 374.721 133.533 380.101 127.739C385.481 121.842 389.31 112.478 391.586 99.6488H395.155C394.845 103.374 394.69 108.133 394.69 113.927ZM490.972 113.927C490.972 124.48 491.334 133.171 492.059 140C485.023 139.69 473.176 139.534 456.519 139.534C432.308 139.534 414.202 139.69 402.2 140V136.896C405.511 136.689 407.89 136.275 409.339 135.654C410.891 135.034 411.925 133.844 412.443 132.085C412.96 130.326 413.219 127.481 413.219 123.549V46.5716C413.219 42.6399 412.908 39.7946 412.288 38.0357C411.77 36.2768 410.787 35.087 409.339 34.4662C407.89 33.8454 405.511 33.4316 402.2 33.2246V30.1207C414.202 30.4311 432.308 30.5863 456.519 30.5863C471.728 30.5863 482.54 30.4311 488.955 30.1207C488.231 39.8464 487.868 48.5374 487.868 56.1938C487.868 60.9531 488.024 64.6778 488.334 67.3679H484.764C482.902 55.366 479.436 46.7785 474.366 41.6053C469.297 36.3286 463.244 33.6902 456.208 33.6902H454.191C451.397 33.6902 449.328 33.9489 447.983 34.4662C446.741 34.8801 445.862 35.7595 445.344 37.1046C444.931 38.3461 444.724 40.4672 444.724 43.4676V83.198H446.276C451.656 83.198 456.26 81.077 460.088 76.8349C463.916 72.5929 466.348 67.8852 467.382 62.712H470.952C470.642 67.0575 470.486 71.9204 470.486 77.3005V84.75C470.486 90.0267 470.797 97.3726 471.418 106.788H467.848C466.917 100.89 464.485 96.0276 460.554 92.1994C456.726 88.2678 451.966 86.3019 446.276 86.3019H444.724V126.653C444.724 129.654 444.931 131.826 445.344 133.171C445.862 134.413 446.741 135.292 447.983 135.81C449.328 136.224 451.397 136.43 454.191 136.43H459.312C465.313 136.43 471.004 133.533 476.384 127.739C481.764 121.842 485.592 112.478 487.868 99.6488H491.438C491.128 103.374 490.972 108.133 490.972 113.927ZM602.464 33.2246C599.257 33.9489 596.877 35.087 595.325 36.639C593.773 38.0875 592.739 40.3637 592.221 43.4676C591.704 46.5716 591.445 51.2275 591.445 57.4353V140C589.376 139.793 587.669 139.69 586.324 139.69C585.186 139.69 583.272 139.793 580.581 140L511.829 64.8848V109.581C511.829 117.238 512.14 122.773 512.76 126.187C513.381 129.498 514.726 131.93 516.796 133.482C518.968 135.034 522.538 136.172 527.504 136.896V140C523.262 139.69 517.468 139.534 510.122 139.534C504.639 139.534 500.345 139.69 497.241 140V136.896C500.448 136.172 502.828 135.085 504.38 133.637C505.932 132.085 506.966 129.757 507.484 126.653C508.001 123.549 508.26 118.893 508.26 112.685V46.5716C508.26 42.6399 507.949 39.7946 507.329 38.0357C506.811 36.2768 505.828 35.087 504.38 34.4662C502.931 33.8454 500.552 33.4316 497.241 33.2246V30.1207C500.345 30.4311 504.639 30.5863 510.122 30.5863C515.709 30.5863 520.469 30.4311 524.4 30.1207L587.876 97.1657V60.5393C587.876 52.8829 587.565 47.3993 586.945 44.0884C586.324 40.6741 584.927 38.1909 582.754 36.639C580.685 35.087 577.167 33.9489 572.201 33.2246V30.1207C576.443 30.4311 582.237 30.5863 589.583 30.5863C595.066 30.5863 599.36 30.4311 602.464 30.1207V33.2246ZM698.348 126.963C699.693 130.274 701.141 132.757 702.693 134.413C704.349 135.965 705.953 136.793 707.504 136.896V140C700.055 139.69 690.64 139.534 679.259 139.534C667.464 139.534 658.773 139.69 653.186 140V136.896C657.117 136.689 659.911 136.224 661.566 135.499C663.222 134.672 664.049 133.275 664.049 131.309C664.049 129.447 663.429 126.963 662.187 123.86L653.03 98.4073H621.681L619.042 105.391C615.628 114.186 613.921 120.911 613.921 125.567C613.921 129.809 615.111 132.706 617.49 134.258C619.87 135.81 623.388 136.689 628.044 136.896V140C620.284 139.69 613.507 139.534 607.713 139.534C602.85 139.534 598.867 139.69 595.763 140V136.896C598.349 136.482 600.781 134.879 603.057 132.085C605.333 129.291 607.661 124.842 610.041 118.738L644.495 30.1207C647.805 30.3276 650.547 30.4311 652.72 30.4311C654.789 30.4311 657.479 30.3276 660.79 30.1207L698.348 126.963ZM651.944 95.3033L637.821 56.5042L622.922 95.3033H651.944ZM791.162 33.2246C787.437 33.4316 784.695 33.8454 782.936 34.4662C781.281 35.087 780.143 36.2768 779.522 38.0357C778.901 39.7946 778.591 42.6399 778.591 46.5716V126.653C778.591 129.55 778.798 131.671 779.211 133.016C779.625 134.361 780.35 135.292 781.384 135.81C782.419 136.224 784.126 136.43 786.506 136.43H791.627C795.248 136.43 799.18 134.62 803.422 130.999C807.664 127.377 811.492 122.618 814.907 116.72C818.321 110.72 820.597 104.512 821.735 98.0969H825.305C824.994 101.822 824.839 106.581 824.839 112.375C824.839 123.549 825.201 132.757 825.926 140C818.89 139.69 807.043 139.534 790.386 139.534C766.175 139.534 748.069 139.69 736.067 140V136.896C739.378 136.689 741.757 136.275 743.206 135.654C744.758 135.034 745.792 133.844 746.31 132.085C746.827 130.326 747.086 127.481 747.086 123.549V46.5716C747.086 42.6399 746.775 39.7946 746.155 38.0357C745.637 36.2768 744.654 35.087 743.206 34.4662C741.757 33.8454 739.378 33.4316 736.067 33.2246V30.1207C741.964 30.4311 751.173 30.5863 763.692 30.5863C775.59 30.5863 784.747 30.4311 791.162 30.1207V33.2246ZM923.541 126.963C924.886 130.274 926.334 132.757 927.886 134.413C929.542 135.965 931.145 136.793 932.697 136.896V140C925.248 139.69 915.833 139.534 904.452 139.534C892.657 139.534 883.966 139.69 878.379 140V136.896C882.31 136.689 885.104 136.224 886.759 135.499C888.415 134.672 889.242 133.275 889.242 131.309C889.242 129.447 888.621 126.963 887.38 123.86L878.223 98.4073H846.874L844.235 105.391C840.821 114.186 839.114 120.911 839.114 125.567C839.114 129.809 840.304 132.706 842.683 134.258C845.063 135.81 848.581 136.689 853.237 136.896V140C845.477 139.69 838.7 139.534 832.906 139.534C828.043 139.534 824.06 139.69 820.956 140V136.896C823.542 136.482 825.974 134.879 828.25 132.085C830.526 129.291 832.854 124.842 835.234 118.738L869.687 30.1207C872.998 30.3276 875.74 30.4311 877.913 30.4311C879.982 30.4311 882.672 30.3276 885.983 30.1207L923.541 126.963ZM877.137 95.3033L863.014 56.5042L848.115 95.3033H877.137ZM986.217 82.422C996.357 82.9393 1004.69 84.543 1011.2 87.2331C1017.83 89.9232 1022.64 93.2858 1025.64 97.3209C1028.64 101.253 1030.14 105.443 1030.14 109.892C1030.14 120.031 1026.1 127.584 1018.03 132.551C1009.96 137.517 998.478 140 983.579 140C980.578 140 978.044 139.948 975.974 139.845C968.939 139.638 962.058 139.534 955.333 139.534C943.228 139.534 934.226 139.69 928.329 140V136.896C931.64 136.689 934.019 136.275 935.468 135.654C937.02 135.034 938.055 133.844 938.572 132.085C939.089 130.326 939.348 127.481 939.348 123.549V46.5716C939.348 42.6399 939.037 39.7946 938.417 38.0357C937.899 36.2768 936.916 35.087 935.468 34.4662C934.019 33.8454 931.64 33.4316 928.329 33.2246V30.1207C934.226 30.4311 943.124 30.5863 955.023 30.5863L972.87 30.4311C974.94 30.3276 977.319 30.2759 980.009 30.2759C993.667 30.2759 1004.06 32.5004 1011.2 36.9494C1018.45 41.2949 1022.07 47.1923 1022.07 54.6418C1022.07 58.47 1020.72 62.3499 1018.03 66.2815C1015.34 70.1097 1011.31 73.4723 1005.93 76.3693C1000.55 79.2663 993.977 81.1804 986.217 82.1116V82.422ZM979.233 33.2246C976.854 33.2246 975.043 33.5868 973.801 34.311C972.663 35.0353 971.887 36.3286 971.474 38.1909C971.06 40.0533 970.853 42.8468 970.853 46.5716V81.646H975.043C980.63 81.646 984.51 79.3698 986.683 74.8174C988.959 70.1615 990.097 64.0053 990.097 56.349C990.097 48.4857 989.218 42.6916 987.459 38.9669C985.803 35.1387 983.062 33.2246 979.233 33.2246ZM980.941 136.43C992.011 136.43 997.547 127.377 997.547 109.271C997.547 101.097 995.581 94.8895 991.649 90.6474C987.717 86.4054 981.51 84.2844 973.026 84.2844H970.853V123.549C970.853 127.274 971.111 130.016 971.629 131.775C972.146 133.533 973.077 134.775 974.422 135.499C975.871 136.12 978.044 136.43 980.941 136.43ZM1075.47 27.948C1081.37 27.948 1086.13 28.517 1089.75 29.6551C1093.47 30.6898 1097.1 32.19 1100.61 34.1558C1101.75 34.7766 1102.73 35.2939 1103.56 35.7078C1104.49 36.1216 1105.27 36.3286 1105.89 36.3286C1106.82 36.3286 1107.55 35.8113 1108.06 34.7766C1108.58 33.6385 1108.99 31.8796 1109.3 29.4999H1112.87C1112.36 36.9494 1112.1 49.572 1112.1 67.3679H1108.53C1108.11 61.4704 1106.77 55.8316 1104.49 50.4515C1102.22 45.0713 1099.11 40.6741 1095.18 37.2598C1091.25 33.8454 1086.7 32.1383 1081.52 32.1383C1076.76 32.1383 1072.94 33.4316 1070.04 36.0182C1067.14 38.5013 1065.69 42.0191 1065.69 46.5716C1065.69 50.0894 1066.47 53.1416 1068.02 55.7282C1069.57 58.3148 1071.85 60.8497 1074.85 63.3328C1077.85 65.7125 1082.77 69.282 1089.59 74.0414C1090.21 74.3518 1090.78 74.7139 1091.3 75.1278C1091.92 75.5416 1092.49 75.9555 1093.01 76.3693C1098.7 80.301 1103.25 83.8188 1106.67 86.9227C1110.08 89.9232 1112.82 93.441 1114.89 97.4761C1117.06 101.511 1118.15 106.167 1118.15 111.444C1118.15 118.169 1116.24 123.86 1112.41 128.515C1108.68 133.068 1103.61 136.482 1097.2 138.758C1090.78 141.035 1083.7 142.173 1075.94 142.173C1069.63 142.173 1064.35 141.655 1060.11 140.621C1055.97 139.586 1052.09 138.189 1048.47 136.43C1046.19 134.982 1044.43 134.258 1043.19 134.258C1042.26 134.258 1041.53 134.827 1041.02 135.965C1040.5 137 1040.09 138.707 1039.78 141.086H1036.21C1036.62 134.051 1036.83 119.048 1036.83 96.0793H1040.4C1041.12 108.392 1043.71 118.376 1048.16 126.032C1052.61 133.689 1059.43 137.517 1068.64 137.517C1074.33 137.517 1078.83 136.172 1082.14 133.482C1085.56 130.792 1087.27 127.067 1087.27 122.308C1087.27 116.41 1085.4 111.392 1081.68 107.253C1078.06 103.011 1072.37 98.3038 1064.61 93.1306C1058.4 88.992 1053.43 85.3707 1049.71 82.2668C1045.98 79.1629 1042.93 75.5934 1040.55 71.5582C1038.17 67.4197 1036.98 62.6603 1036.98 57.2801C1036.98 50.7619 1038.74 45.33 1042.26 40.9845C1045.78 36.5355 1050.43 33.2764 1056.23 31.2071C1062.12 29.0343 1068.54 27.948 1075.47 27.948Z" fill="#202020"/>
<defs>
<clipPath id="clip0_150_99">
<rect width="168.048" height="170" fill="white"/>
</clipPath>
</defs>
</svg>
